<svg width="32" height="32" xmlns="http://www.w3.org/2000/svg">
 <g>
  <title>background</title>
  <rect x="-1" y="-1" width="34" height="34" id="canvas_background" fill="none"/>
 </g>

 <g>
  <title>Layer 1</title>
  <g stroke="null" id="surface1">
   <path stroke="null" d="m15.96617,0.09894c-8.78457,0 -15.93191,7.14734 -15.93191,15.93191c0,8.78457 7.14734,15.93191 15.93191,15.93191c8.78457,0 15.93191,-7.14734 15.93191,-15.93191c0,-8.78457 -7.14734,-15.93191 -15.93191,-15.93191zm0,2.45106c7.45851,0 13.48085,6.02234 13.48085,13.48085c0,7.45851 -6.02234,13.48085 -13.48085,13.48085c-7.45851,0 -13.48085,-6.02234 -13.48085,-13.48085c0,-7.45851 6.02234,-13.48085 13.48085,-13.48085zm7.69787,7.69787l-8.9234,8.9234l-5.24681,-5.24681l-1.7617,1.7617l6.12766,6.12766l0.88085,0.84255l0.88085,-0.84255l9.80425,-9.80425l-1.7617,-1.7617z" id="svg_1" fill="#ff0000"/>
  </g>
 </g>
</svg>