<?xml version="1.0" encoding="UTF-8"?>
<svg width="32" height="32" version="1.1" viewBox="0 0 32 32" xmlns="http://www.w3.org/2000/svg" xmlns:cc="http://creativecommons.org/ns#" xmlns:dc="http://purl.org/dc/elements/1.1/" xmlns:rdf="http://www.w3.org/1999/02/22-rdf-syntax-ns#">
 <metadata>
  <rdf:RDF>
   <cc:Work rdf:about="">
    <dc:format>image/svg+xml</dc:format>
    <dc:type rdf:resource="http://purl.org/dc/dcmitype/StillImage"/>
    <dc:title/>
   </cc:Work>
  </rdf:RDF>
 </metadata>
 <path d="m16.251 1c-1.0183 0-2.0098 0.10782-2.9741 0.29787l0.45827 2.3005c0.81417-0.1619 1.6548-0.25205 2.5159-0.25205 0.44636 0 0.88529 0.024787 1.3198 0.06874 0.4057 0.042412 0.80247 0.10504 1.1961 0.18331v-0.00458c5.9304 1.1675 10.389 6.3779 10.389 12.657 0 6.2794-4.4585 11.49-10.389 12.657v-0.0047c-0.39949 0.07945-0.80246 0.14083-1.2144 0.18332-0.42868 0.04286-0.86129 0.06884-1.3015 0.06884-0.86345 0-1.6948-0.10848-2.5113-0.27038l-0.45827 2.2959c0.96434 0.1924 1.9489 0.32079 2.9696 0.32079 8.4096 0 15.251-6.8415 15.251-15.251 0-8.4096-6.8415-15.251-15.251-15.251zm-8.4688 2.5755c-1.6612 1.1145-3.074 2.5572-4.1885 4.216l1.9476 1.3015c0.94322-1.4054 2.1369-2.6221 3.5424-3.5653zm14.605 7.2314-6.5349 7.8409-3.7853-3.547-1.6039 1.7139 5.6 5.2471 8.1296-9.7519zm-21.066 2.4746c-0.1924 0.96434-0.32079 1.9489-0.32079 2.9696 0 1.0183 0.10782 2.0098 0.29787 2.9741l2.3005-0.45827c-0.1619-0.81417-0.25205-1.6548-0.25205-2.5159 0-0.86345 0.10848-1.6948 0.27038-2.5113zm4.2069 10.137-1.9522 1.3015c1.1145 1.6612 2.5572 3.074 4.216 4.1885l1.3015-1.9476c-1.4054-0.94322-2.6221-2.1369-3.5653-3.5424z" stroke-width="2.3463"/>
</svg>
