<?xml version="1.0" encoding="UTF-8"?>
<svg width="32" height="32" enable-background="new 0 0 24 24" version="1.1" viewBox="0 0 32 32" xml:space="preserve" xmlns="http://www.w3.org/2000/svg" xmlns:cc="http://creativecommons.org/ns#" xmlns:dc="http://purl.org/dc/elements/1.1/" xmlns:rdf="http://www.w3.org/1999/02/22-rdf-syntax-ns#"><metadata><rdf:RDF><cc:Work rdf:about=""><dc:format>image/svg+xml</dc:format><dc:type rdf:resource="http://purl.org/dc/dcmitype/StillImage"/><dc:title/></cc:Work></rdf:RDF></metadata><path d="m28.329 5.8096c-0.36458-0.36706-0.9581-0.36706-1.3202 0l-13.912 13.848c-0.36458 0.36955-0.95934 0.36955-1.3214 0l-6.0958-6.2077c-0.18042-0.18415-0.41684-0.27499-0.65449-0.27623-0.24015-0.0012-0.48403 0.08959-0.66694 0.27623l-2.6939 2.4214c-0.17918 0.18415-0.27623 0.41435-0.27623 0.65449 0 0.24139 0.097054 0.49398 0.27748 0.67689l6.1468 6.4504c0.36333 0.36831 0.95934 0.96557 1.3214 1.3314l2.6429 2.664c0.36333 0.36458 0.95686 0.36458 1.3214 0l17.875-17.843c0.36458-0.36582 0.36458-0.96681 0-1.3326z" clip-rule="evenodd" fill="#f00" fill-rule="evenodd" stroke-width="1.2443"/></svg>
