<?xml version="1.0" encoding="UTF-8"?>
<svg width="32" height="32" version="1.1" viewBox="0 0 32 32" xml:space="preserve" xmlns="http://www.w3.org/2000/svg" xmlns:cc="http://creativecommons.org/ns#" xmlns:dc="http://purl.org/dc/elements/1.1/" xmlns:rdf="http://www.w3.org/1999/02/22-rdf-syntax-ns#"><metadata><rdf:RDF><cc:Work rdf:about=""><dc:format>image/svg+xml</dc:format><dc:type rdf:resource="http://purl.org/dc/dcmitype/StillImage"/><dc:title/></cc:Work></rdf:RDF></metadata><path d="m4.6653 29.712c-1.2459-0.40939-2.0072-1.3634-2.0176-2.5285-0.010958-1.2271-0.11991-1.0918 5.0624-6.2908l4.6968-4.7119-4.6968-4.7119c-5.1823-5.199-5.0734-5.0637-5.0624-6.2908 0.012564-1.3911 1.1687-2.5472 2.5603-2.5602 1.2269-0.011444 1.0915-0.12037 6.2913 5.0627l4.7124 4.6973 4.6621-4.6564c4.9176-4.9116 4.9994-4.9812 6.0253-5.1218 1.4186-0.19444 2.8607 1.0992 2.8745 2.5784 0.01144 1.2269 0.12031 1.0916-5.0622 6.2908l-4.6968 4.7119 4.6968 4.7119c5.1823 5.199 5.0734 5.0637 5.0624 6.2908-0.01255 1.3911-1.1687 2.5472-2.5603 2.5602-1.2269 0.01144-1.0915 0.12037-6.2913-5.0627l-4.7124-4.6973-4.6621 4.6564c-5.0082 5.0021-5.0443 5.0322-6.125 5.1142-0.28086 0.0213-0.62167 0.0021-0.75736-0.04235z" fill="#f00" stroke-width=".098679"/></svg>
