<?xml version="1.0" encoding="UTF-8" standalone="no"?>
<svg
   xmlns:dc="http://purl.org/dc/elements/1.1/"
   xmlns:cc="http://creativecommons.org/ns#"
   xmlns:rdf="http://www.w3.org/1999/02/22-rdf-syntax-ns#"
   xmlns:svg="http://www.w3.org/2000/svg"
   xmlns="http://www.w3.org/2000/svg"
   id="svg13"
   version="1.1"
   height="32"
   width="32">
  <metadata
     id="metadata19">
    <rdf:RDF>
      <cc:Work
         rdf:about="">
        <dc:format>image/svg+xml</dc:format>
        <dc:type
           rdf:resource="http://purl.org/dc/dcmitype/StillImage" />
        <dc:title></dc:title>
      </cc:Work>
    </rdf:RDF>
  </metadata>
  <defs
     id="defs17" />
  <g
     id="g5">
    <title
       id="title2">background</title>
    <rect
       fill="none"
       id="canvas_background"
       height="34"
       width="34"
       y="-1"
       x="-1" />
  </g>
  <g
     id="g11">
    <title
       id="title7">Layer 1</title>
    <g
       id="surface1"
       stroke="null">
      <path
         fill="#ff0000"
         id="svg_1"
         d="m 15.96617,0.09894 c -8.78457,0 -15.93191,7.14734 -15.93191,15.93191 0,8.78457 7.14734,15.93191 15.93191,15.93191 8.78457,0 15.93191,-7.14734 15.93191,-15.93191 0,-8.78457 -7.14734,-15.93191 -15.93191,-15.93191 z m 0,2.45106 c 7.45851,0 13.48085,6.02234 13.48085,13.48085 0,7.45851 -6.02234,13.48085 -13.48085,13.48085 C 8.50766,29.5117 2.48532,23.48936 2.48532,16.03085 2.48532,8.57234 8.50766,2.55 15.96617,2.55 Z"
         stroke="null" />
      <path
         style="stroke-width:0.0426844;fill:#ff0000"
         d="m 18.221479,12.693326 c -0.235766,0 -0.426845,0.19108 -0.426845,0.426842 v 8.067344 c 0,0.235598 0.191079,0.426844 0.426845,0.426844 0.235764,0 0.426844,-0.191246 0.426844,-0.426844 v -8.067344 c 0,-0.235762 -0.19108,-0.426842 -0.426844,-0.426842 z m 0,0"
         id="path2" />
      <path
         style="stroke-width:0.0426844;fill:#ff0000"
         d="m 13.184725,12.693326 c -0.235765,0 -0.426844,0.19108 -0.426844,0.426842 v 8.067344 c 0,0.235598 0.191079,0.426844 0.426844,0.426844 0.235764,0 0.426844,-0.191246 0.426844,-0.426844 v -8.067344 c 0,-0.235762 -0.19108,-0.426842 -0.426844,-0.426842 z m 0,0"
         id="path4" />
      <path
         style="stroke-width:0.0426844;fill:#ff0000"
         d="m 9.5138697,11.516004 v 10.516525 c 0,0.621591 0.2279274,1.205332 0.6260923,1.624174 0.396331,0.420006 0.947893,0.658439 1.525132,0.65944 h 8.076013 c 0.577407,-0.0011 1.128969,-0.239434 1.525132,-0.65944 0.398167,-0.418842 0.626095,-1.002583 0.626095,-1.624174 V 11.516004 C 22.683829,11.305916 23.196707,10.541267 23.09083,9.7290959 22.984785,8.9170941 22.293,8.3096754 21.473993,8.3095077 H 19.288587 V 7.7759547 C 19.291091,7.3272687 19.113681,6.8964221 18.79605,6.5794574 18.478418,6.2626604 18.046905,6.0862539 17.598219,6.089921 h -3.790237 c -0.448686,-0.00367 -0.880197,0.1727394 -1.197828,0.4895364 -0.317634,0.3169647 -0.495039,0.7478113 -0.492537,1.1964973 v 0.533553 H 9.9322102 C 9.113203,8.309669 8.4214158,8.9170941 8.3153733,9.7290959 8.2094964,10.541267 8.7223748,11.305916 9.5138697,11.516004 Z m 10.2272373,11.94645 h -8.076013 c -0.729803,0 -1.297538,-0.626925 -1.297538,-1.429925 V 11.553518 h 10.671089 v 10.479011 c 0,0.803 -0.567733,1.429925 -1.297538,1.429925 z M 12.971303,7.7759547 c -0.0028,-0.222259 0.08453,-0.436182 0.242267,-0.5930811 0.157566,-0.156897 0.371987,-0.2430991 0.594412,-0.2392642 h 3.790237 c 0.222427,-0.00384 0.436849,0.082367 0.594414,0.2392642 0.157731,0.1567336 0.2451,0.3708221 0.242268,0.5930811 v 0.533553 H 12.971303 Z M 9.9322102,9.1631961 H 21.473993 c 0.424342,0 0.768318,0.3439761 0.768318,0.7683182 0,0.4243417 -0.343976,0.7683177 -0.768318,0.7683177 H 9.9322102 c -0.4243421,0 -0.7683183,-0.343976 -0.7683183,-0.7683177 0,-0.4243421 0.3439762,-0.7683182 0.7683183,-0.7683182 z m 0,0"
         id="path6" />
      <path
         style="stroke-width:0.0426844;fill:#ff0000"
         d="m 15.703102,12.693326 c -0.235765,0 -0.426844,0.19108 -0.426844,0.426842 v 8.067344 c 0,0.235598 0.191079,0.426844 0.426844,0.426844 0.235764,0 0.426844,-0.191246 0.426844,-0.426844 v -8.067344 c 0,-0.235762 -0.19108,-0.426842 -0.426844,-0.426842 z m 0,0"
         id="path8" />
    </g>
  </g>
</svg>
