<?xml version="1.0" encoding="UTF-8" standalone="no"?>
<svg
   xmlns:dc="http://purl.org/dc/elements/1.1/"
   xmlns:cc="http://creativecommons.org/ns#"
   xmlns:rdf="http://www.w3.org/1999/02/22-rdf-syntax-ns#"
   xmlns:svg="http://www.w3.org/2000/svg"
   xmlns="http://www.w3.org/2000/svg"
   xmlns:sodipodi="http://sodipodi.sourceforge.net/DTD/sodipodi-0.dtd"
   xmlns:inkscape="http://www.inkscape.org/namespaces/inkscape"
   width="1e3"
   height="1e3"
   version="1.1"
   id="svg23"
   sodipodi:docname="remove-icon-2.svg"
   inkscape:version="1.0 (4035a4fb49, 2020-05-01)">
  <defs
     id="defs27" />
  <sodipodi:namedview
     inkscape:document-rotation="0"
     pagecolor="#ffffff"
     bordercolor="#666666"
     borderopacity="1"
     objecttolerance="10"
     gridtolerance="10"
     guidetolerance="10"
     inkscape:pageopacity="0"
     inkscape:pageshadow="2"
     inkscape:window-width="1366"
     inkscape:window-height="705"
     id="namedview25"
     showgrid="false"
     inkscape:zoom="0.269"
     inkscape:cx="1276.2118"
     inkscape:cy="654.84331"
     inkscape:window-x="-8"
     inkscape:window-y="-8"
     inkscape:window-maximized="1"
     inkscape:current-layer="g19" />
  <metadata
     id="metadata2">Svg Vector Icons : http://www.onlinewebfonts.com/icon
  <rdf:RDF>
  <cc:Work
     rdf:about="">
    <dc:format>image/svg+xml</dc:format>
    <dc:type
       rdf:resource="http://purl.org/dc/dcmitype/StillImage" />
    <dc:title />
  </cc:Work>
</rdf:RDF>
</metadata>
  <g
     id="g7">
    <title
       id="title4">background</title>
    <rect
       id="canvas_background"
       x="-1"
       y="-1"
       width="1925.1"
       height="1925.1"
       fill="none" />
  </g>
  <g
     id="g21">
    <title
       id="title9">Layer 1</title>
    <g
       stroke="null"
       id="g19">
      <path
         id="path2"
         d="m 651.00529,369.83822 c -12.19922,0 -22.09003,9.88977 -22.09003,22.09255 v 417.54256 c 0,12.194 9.89081,22.09204 22.09003,22.09204 12.20436,0 22.09505,-9.89804 22.09505,-22.09204 V 391.93077 c 0,-12.20278 -9.89069,-22.09255 -22.09505,-22.09255 z m 0,0"
         style="fill:#ffffff;stroke-width:2.20923" />
      <path
         id="path4"
         d="m 390.31999,369.83822 c -12.20435,0 -22.09516,9.88977 -22.09516,22.09255 v 417.54256 c 0,12.194 9.89081,22.09204 22.09516,22.09204 12.19912,0 22.08993,-9.89804 22.08993,-22.09204 V 391.93077 c 0,-12.20278 -9.89081,-22.09255 -22.08993,-22.09255 z m 0,0"
         style="fill:#ffffff;stroke-width:2.20923" />
      <path
         id="path6"
         d="m 200.32465,308.90349 v 544.3057 c 0,32.1717 11.80059,62.38449 32.40512,84.0624 20.51139,21.73852 49.06063,34.07902 78.94006,34.13072 h 417.99075 c 29.88456,-0.0513 58.42868,-12.3922 78.93483,-34.13072 20.60977,-21.67791 32.40522,-51.8907 32.40522,-84.0624 v -544.3057 c 40.96573,-10.87366 67.51206,-50.44977 62.03097,-92.48538 -5.49145,-42.02681 -41.29185,-73.46515 -83.68615,-73.47343 H 706.23534 v -27.61554 c 0,-23.222412 -9.05229,-45.521975 -25.49044,-61.926929 C 664.30687,37.005545 641.97361,27.87506 618.75015,28.065012 H 422.57503 C 399.3568,27.85798 377.01842,37.005545 360.58027,53.402211 344.14224,69.807165 334.96048,92.106728 335.08995,115.32914 v 27.61554 H 221.97983 c -42.38906,0.008 -78.19469,31.44662 -83.68614,73.47343 -5.47597,42.03561 21.06512,81.61172 62.03096,92.48538 z M 729.66058,927.21778 H 311.66983 c -37.77757,0 -67.16009,-32.44757 -67.16009,-74.00859 V 310.84542 h 552.30581 v 542.36377 c 0,41.56102 -29.38252,74.00859 -67.15497,74.00859 z M 379.27503,115.32914 c 0,-11.50355 4.39936,-22.575444 12.53559,-30.696147 8.15685,-8.120693 19.25362,-12.582163 30.76441,-12.383409 h 196.17512 c 11.51079,-0.207032 22.60756,4.264788 30.76451,12.383409 8.16209,8.111902 12.68567,19.192597 12.54072,30.696147 v 27.61554 H 379.27503 Z m -157.2952,71.79959 h 597.36562 c 21.9657,0 39.77013,17.80343 39.77013,39.76606 0,21.96264 -17.80443,39.76606 -39.77013,39.76606 H 221.97983 c -21.96569,0 -39.77024,-17.80342 -39.77024,-39.76606 0,-21.96263 17.80455,-39.76606 39.77024,-39.76606 z m 0,0"
         style="fill:#ffffff;stroke-width:2.20923" />
      <path
         id="path8"
         d="m 520.66521,369.83822 c -12.20436,0 -22.09516,9.88977 -22.09516,22.09255 v 417.54256 c 0,12.194 9.8908,22.09204 22.09516,22.09204 12.19911,0 22.08992,-9.89804 22.08992,-22.09204 V 391.93077 c 0,-12.20278 -9.89081,-22.09255 -22.08992,-22.09255 z m 0,0"
         style="fill:#ffffff;stroke-width:2.20923" />
    </g>
  </g>
</svg>
